<svg width="23" height="24" viewBox="0 0 37 36" fill="none" xmlns="http://www.w3.org/2000/svg">
<path d="M36.7739 9.70766C36.5439 9.38105 36.2352 9.21774 35.8478 9.21774H11.1865L9.2979 2.79435C9.12841 2.21371 8.89839 1.71774 8.60783 1.30645C8.31727 0.895161 8.00855 0.604839 7.68167 0.435484C7.35479 0.266129 7.07028 0.15121 6.82815 0.0907258C6.58602 0.0302419 6.34388 0 6.10175 0H1.12592C0.811145 0 0.544799 0.108871 0.326879 0.326613C0.10896 0.544355 0 0.822581 0 1.16129C0 1.35484 0.0484266 1.54234 0.14528 1.72379C0.242133 1.90524 0.381359 2.04435 0.562959 2.14113C0.744559 2.2379 0.932212 2.28629 1.12592 2.28629H6.10175C6.1986 2.28629 6.2894 2.29839 6.37415 2.32258C6.4589 2.34677 6.57391 2.4496 6.71919 2.63105C6.86447 2.8125 6.98554 3.08468 7.08239 3.44758L13.511 27.0363C13.5594 27.1815 13.6381 27.3206 13.7471 27.4536C13.8561 27.5867 13.9832 27.6895 14.1285 27.7621C14.2737 27.8347 14.4311 27.871 14.6006 27.871H30.2908C30.533 27.871 30.7569 27.7984 30.9627 27.6532C31.1686 27.5081 31.3078 27.3266 31.3804 27.1089L36.9374 10.7782C37.0584 10.3911 37.004 10.0343 36.7739 9.70766ZM29.4918 25.5484H15.5086L11.804 11.5403H34.1771L29.4918 25.5484ZM27.2036 30.1935C26.4046 30.1935 25.7206 30.4778 25.1516 31.0464C24.5825 31.6149 24.298 32.2984 24.298 33.0968C24.298 33.8952 24.5825 34.5786 25.1516 35.1472C25.7206 35.7157 26.4046 36 27.2036 36C28.0027 36 28.6867 35.7157 29.2557 35.1472C29.8247 34.5786 30.1092 33.8952 30.1092 33.0968C30.1092 32.2984 29.8247 31.6149 29.2557 31.0464C28.6867 30.4778 28.0027 30.1935 27.2036 30.1935ZM16.7435 30.1935C16.2108 30.1935 15.7205 30.3266 15.2725 30.5927C14.8246 30.8589 14.4735 31.2097 14.2193 31.6452C13.965 32.0806 13.8379 32.5645 13.8379 33.0968C13.8379 33.8952 14.1224 34.5786 14.6914 35.1472C15.2604 35.7157 15.9445 36 16.7435 36C17.5425 36 18.2266 35.7157 18.7956 35.1472C19.3646 34.5786 19.6491 33.8952 19.6491 33.0968C19.6491 32.9032 19.6309 32.7097 19.5946 32.5161C19.5583 32.3226 19.5038 32.1411 19.4312 31.9718C19.3585 31.8024 19.2677 31.6391 19.1588 31.4819C19.0498 31.3246 18.9287 31.1794 18.7956 31.0464C18.6624 30.9133 18.5171 30.7923 18.3597 30.6835C18.2023 30.5746 18.0389 30.4839 17.8694 30.4113C17.6999 30.3387 17.5183 30.2843 17.3246 30.248C17.1309 30.2117 16.9372 30.1935 16.7435 30.1935Z" fill="black"/>
</svg>
