<svg width="31" height="31" viewBox="0 0 31 31" fill="none" xmlns="http://www.w3.org/2000/svg">
<path fill-rule="evenodd" clip-rule="evenodd" d="M20.2318 20.2317C20.4117 20.0516 20.6254 19.9087 20.8606 19.8112C21.0958 19.7137 21.348 19.6635 21.6026 19.6635C21.8572 19.6635 22.1093 19.7137 22.3445 19.8112C22.5798 19.9087 22.7935 20.0516 22.9734 20.2317L30.4329 27.6913C30.7965 28.0546 31.0008 28.5474 31.001 29.0614C31.0012 29.5753 30.7972 30.0683 30.4339 30.4319C30.0706 30.7955 29.5777 30.9998 29.0638 31C28.5498 31.0002 28.0568 30.7962 27.6932 30.4329L20.2337 22.9734C20.0536 22.7934 19.9107 22.5797 19.8132 22.3445C19.7157 22.1093 19.6655 21.8572 19.6655 21.6025C19.6655 21.3479 19.7157 21.0958 19.8132 20.8606C19.9107 20.6254 20.0536 20.4117 20.2337 20.2317H20.2318Z" fill="black"/>
<path fill-rule="evenodd" clip-rule="evenodd" d="M12.594 23.2504C13.9934 23.2504 15.3791 22.9748 16.672 22.4393C17.9649 21.9037 19.1397 21.1188 20.1292 20.1292C21.1188 19.1397 21.9037 17.9649 22.4393 16.672C22.9748 15.3791 23.2504 13.9934 23.2504 12.594C23.2504 11.1946 22.9748 9.80884 22.4393 8.51594C21.9037 7.22304 21.1188 6.04828 20.1292 5.05874C19.1397 4.06919 17.9649 3.28425 16.672 2.74871C15.3791 2.21317 13.9934 1.93754 12.594 1.93754C9.76772 1.93754 7.05721 3.06027 5.05874 5.05874C3.06027 7.05721 1.93754 9.76772 1.93754 12.594C1.93754 15.4203 3.06027 18.1308 5.05874 20.1292C7.05721 22.1277 9.76772 23.2504 12.594 23.2504V23.2504ZM25.188 12.594C25.188 15.9341 23.8611 19.1374 21.4993 21.4993C19.1374 23.8611 15.9341 25.188 12.594 25.188C9.25385 25.188 6.05052 23.8611 3.68869 21.4993C1.32686 19.1374 0 15.9341 0 12.594C0 9.25385 1.32686 6.05052 3.68869 3.68869C6.05052 1.32686 9.25385 0 12.594 0C15.9341 0 19.1374 1.32686 21.4993 3.68869C23.8611 6.05052 25.188 9.25385 25.188 12.594V12.594Z" fill="black"/>
</svg>
